<svg xmlns="http://www.w3.org/2000/svg" width="135" height="41" viewBox="0 0 135 41" fill="none"> <g clip-path="url(#clip0_15136_5981)"> <path d="M0 5.90771C0 3.14629 2.23858 0.907715 5 0.907715H130C132.761 0.907715 135 3.14629 135 5.90771V35.9077C135 38.6691 132.761 40.9077 130 40.9077H5C2.23857 40.9077 0 38.6691 0 35.9077V5.90771Z" fill="#1E1A24"></path> <path fill-rule="evenodd" clip-rule="evenodd" d="M29.3508 9.07568C29.4555 10.4369 29.0366 11.6934 28.1989 12.7406C27.3612 13.7877 26.2094 14.416 24.8481 14.416C24.7434 13.0547 25.1623 11.7982 26 10.8558C26.8377 9.80867 28.0942 9.18039 29.3508 9.07568ZM33.644 16.8243C32.0734 17.7667 31.1309 19.4421 31.1309 21.2222C31.1309 23.2118 32.2828 25.0966 34.1676 25.7249C33.8535 26.8767 33.3299 28.0285 32.5969 28.9709C31.6545 30.4369 30.7121 31.7982 29.1414 31.7982C28.3806 31.7982 27.8901 31.5771 27.3842 31.3491C26.8456 31.1063 26.2897 30.8557 25.3718 30.8557C24.3973 30.8557 23.7994 31.1068 23.2172 31.3512C22.736 31.5533 22.2656 31.7508 21.6021 31.7982C20.1362 31.7982 18.9843 30.2275 18.0419 28.8662C16.0524 26.039 14.5864 20.8034 16.576 17.3479C17.5184 15.6725 19.2985 14.6254 21.288 14.5207C22.1016 14.5207 22.883 14.8432 23.5784 15.1303C24.136 15.3604 24.6383 15.5678 25.0576 15.5678C25.4252 15.5678 25.9043 15.3766 26.4576 15.1559C27.3229 14.8106 28.3697 14.3929 29.4556 14.5207C31.1309 14.6254 32.7016 15.4631 33.644 16.8243Z" fill="white"></path> <path d="M83.3821 30.3315C81.602 30.3315 80.3455 29.4938 80.2408 28.2373H78.4607C78.5654 30.6456 80.4502 32.1116 83.3821 32.1116C86.4188 32.1116 88.4083 30.5409 88.4083 28.1325C88.4083 26.2477 87.2565 25.2006 84.6387 24.5723L83.1727 24.2582C81.4973 23.8393 80.7643 23.3158 80.7643 22.3734C80.7643 21.2215 81.8115 20.3838 83.3821 20.3838C84.9528 20.3838 86 21.2215 86.1047 22.4781H88.0942C87.9895 20.2791 86.1047 18.7085 83.3821 18.7085C80.6596 18.7085 78.6701 20.2791 78.6701 22.4781C78.6701 24.2582 79.7172 25.3053 82.1256 25.9336L83.801 26.3524C85.4764 26.7713 86.2094 27.2948 86.2094 28.342C86.2094 29.4938 85.0575 30.3315 83.3821 30.3315Z" fill="white"></path> <path fill-rule="evenodd" clip-rule="evenodd" d="M44.5339 28.3423H49.4553L50.7119 31.9025H52.8061L48.0941 18.9182H45.9998L41.2878 31.9025H43.382L44.5339 28.3423ZM49.0365 26.7716H45.0574L46.9423 21.0124H47.047L49.0365 26.7716Z" fill="white"></path> <path fill-rule="evenodd" clip-rule="evenodd" d="M58.9842 32.0072C61.3926 32.0072 62.9633 30.1224 62.9633 27.1904C62.9633 24.2585 61.2879 22.269 58.9842 22.3737C57.7277 22.3737 56.5758 23.0019 55.9476 24.0491V22.4784H54.0627V35.0438H56.0523V30.3318C56.5758 31.3789 57.7277 32.1119 58.9842 32.0072ZM58.3559 24.0491C59.9266 24.0491 60.869 25.3056 60.869 27.1904C60.869 29.0752 59.9266 30.3318 58.3559 30.3318C56.89 30.3318 55.8429 29.0752 55.8429 27.1904C55.8429 25.3056 56.89 24.0491 58.3559 24.0491Z" fill="white"></path> <path fill-rule="evenodd" clip-rule="evenodd" d="M73.3299 27.1904C73.3299 30.1224 71.7592 32.0072 69.3508 32.0072C68.0943 32.1119 66.9425 31.3789 66.4189 30.3318V35.0438H64.4294V22.4784H66.3142V24.0491C66.9425 23.0019 68.0943 22.3737 69.3508 22.3737C71.7592 22.269 73.3299 24.2585 73.3299 27.1904ZM71.3404 27.1904C71.3404 25.3056 70.398 24.0491 68.8273 24.0491C67.3613 24.0491 66.3142 25.3056 66.3142 27.1904C66.3142 29.0752 67.3613 30.3318 68.8273 30.3318C70.398 30.3318 71.3404 29.0752 71.3404 27.1904Z" fill="white"></path> <path d="M92.3875 20.2798V22.3741H94.1676V23.9448H92.3875V29.1804C92.3875 30.0181 92.7016 30.3322 93.5393 30.3322H94.1676V31.9029C93.8534 32.0076 93.4346 32.0076 93.1204 32.0076C91.2356 32.0076 90.5026 31.2746 90.5026 29.4945V24.0495H89.1414V22.4788H90.5026V20.2798H92.3875Z" fill="white"></path> <path fill-rule="evenodd" clip-rule="evenodd" d="M99.8219 22.3737C97.0994 22.3737 95.3193 24.2585 95.3193 27.1904C95.3193 30.1224 96.9947 32.0072 99.8219 32.0072C102.545 32.0072 104.325 30.2271 104.325 27.1904C104.325 24.2585 102.545 22.3737 99.8219 22.3737ZM99.8219 23.9444C101.393 23.9444 102.335 25.0962 102.335 27.1904C102.335 29.18 101.393 30.4365 99.8219 30.4365C98.2513 30.4365 97.3089 29.2847 97.3089 27.1904C97.3089 25.0962 98.2513 23.9444 99.8219 23.9444Z" fill="white"></path> <path d="M105.895 22.3737H107.78V24.0491C107.99 23.0019 109.037 22.269 110.084 22.3737C110.293 22.3737 110.503 22.3737 110.712 22.4784V24.2585C110.398 24.1538 110.084 24.1538 109.874 24.1538C108.827 24.1538 107.885 24.9915 107.885 26.0386V32.0072H105.895V22.3737Z" fill="white"></path> <path fill-rule="evenodd" clip-rule="evenodd" d="M115.634 32.0072C117.728 32.0072 119.508 30.7506 119.717 29.0752H117.832C117.518 30.0177 116.576 30.5412 115.634 30.4365H115.319C113.958 30.2271 113.016 29.0752 113.12 27.714V27.6093H119.822V26.981C119.822 24.0491 118.147 22.269 115.529 22.269C112.806 22.269 111.131 24.2585 111.131 27.1904C111.131 30.1224 112.911 32.0072 115.634 32.0072ZM117.832 26.248H113.12C113.12 24.8868 114.168 23.8396 115.424 23.8396H115.634C116.89 23.9444 117.937 24.9915 117.832 26.248Z" fill="white"></path> <path d="M67.9895 8.76111H67.0471V15.358H67.9895V8.76111Z" fill="white"></path> <path fill-rule="evenodd" clip-rule="evenodd" d="M44.7434 9.07493C46.3141 8.97021 47.5706 10.1221 47.6753 11.588V12.1116C47.6753 14.1011 46.6282 15.253 44.7434 15.253H42.4397V8.97021H44.7434V9.07493ZM43.4868 14.52H44.6387C45.6858 14.6247 46.6282 13.787 46.7329 12.6352V12.2163C46.8376 11.1692 46.1046 10.1221 45.0575 10.0173H43.4868V14.52Z" fill="white"></path> <path fill-rule="evenodd" clip-rule="evenodd" d="M48.8272 12.9499C48.7225 11.6933 49.5602 10.6462 50.8168 10.5415C52.0733 10.4368 53.1204 11.2745 53.2251 12.531V12.9499C53.3298 14.2064 52.4921 15.2536 51.2356 15.3583C49.9791 15.463 48.9319 14.6253 48.8272 13.3687V12.9499ZM52.2827 12.9499C52.2827 11.9028 51.8639 11.3792 51.0262 11.3792C50.1885 11.3792 49.7696 12.0075 49.7696 12.9499C49.7696 13.997 50.1885 14.6253 51.0262 14.6253C51.8639 14.6253 52.2827 13.997 52.2827 12.9499Z" fill="white"></path> <path d="M58.2512 15.3581H59.1936L60.6596 10.646H59.7172L58.8795 14.2062H58.7748L57.8324 10.646H56.89L55.9475 14.2062H55.8428L55.0051 10.646H54.0627L55.3193 15.3581H56.2617L57.2041 11.9026H57.3088L58.2512 15.3581Z" fill="white"></path> <path d="M61.6021 10.646H62.5445V11.379H62.6493C62.8586 10.8554 63.4869 10.5413 64.0104 10.5413C64.8481 10.4366 65.5811 11.0649 65.6858 12.0073V15.3581H64.7435V12.5308C64.7435 11.7979 64.4294 11.379 63.6964 11.379C63.0681 11.379 62.5445 11.7979 62.5445 12.4261V15.3581H61.6021V10.646Z" fill="white"></path> <path fill-rule="evenodd" clip-rule="evenodd" d="M69.2461 12.9499C69.1414 11.6933 69.9791 10.6462 71.2356 10.5415C72.4921 10.4368 73.5393 11.2745 73.644 12.531V12.9499C73.7487 14.2064 72.911 15.2536 71.6545 15.3583C70.3979 15.463 69.3508 14.6253 69.2461 13.3687V12.9499ZM72.8063 12.9499C72.8063 11.9028 72.3874 11.3792 71.5497 11.3792C70.712 11.3792 70.2932 12.0075 70.2932 12.9499C70.2932 13.997 70.712 14.6253 71.5497 14.6253C72.2827 14.6253 72.8063 13.997 72.8063 12.9499Z" fill="white"></path> <path fill-rule="evenodd" clip-rule="evenodd" d="M76.4712 12.6358C75.3193 12.6358 74.6911 13.1593 74.6911 13.997C74.6911 14.1017 74.6911 14.1017 74.5864 14.2064C74.6911 14.9394 75.4241 15.5677 76.157 15.463C76.7853 15.463 77.3089 15.2536 77.623 14.73H77.7277V15.3583H78.6701V12.1122C78.6701 11.1698 77.9371 10.5415 76.7853 10.5415C75.7382 10.5415 75.0052 11.0651 74.9005 11.9028H75.8429C75.9476 11.5886 76.2618 11.3792 76.7853 11.3792C77.4136 11.3792 77.7277 11.5886 77.7277 12.1122V12.531L76.4712 12.6358ZM77.7277 13.1593V13.5782C77.623 14.3111 77.0994 14.73 76.4712 14.5206C76.0523 14.5206 75.6335 14.3111 75.6335 13.8923C75.6335 13.5782 75.9476 13.264 76.5759 13.264L77.7277 13.1593Z" fill="white"></path> <path fill-rule="evenodd" clip-rule="evenodd" d="M79.822 12.9496C79.822 11.4836 80.5549 10.5412 81.8115 10.5412C82.4398 10.5412 82.9633 10.8553 83.2775 11.3789H83.3822V8.76111H84.3246V15.358H83.3822V14.625H83.2775C82.9633 15.1485 82.4398 15.4627 81.8115 15.4627C80.6597 15.4627 79.822 14.5203 79.822 12.9496ZM80.8691 12.9496C80.8691 13.9967 81.3926 14.5203 82.1256 14.5203C82.8586 14.5203 83.3822 13.892 83.3822 12.9496C83.3822 12.0072 82.8586 11.3789 82.1256 11.3789C81.2879 11.3789 80.8691 12.0072 80.8691 12.9496Z" fill="white"></path> <path fill-rule="evenodd" clip-rule="evenodd" d="M90.0839 10.5415C88.8273 10.6462 87.9896 11.6933 88.0943 12.9499V13.3687C88.1991 14.6253 89.2462 15.463 90.5027 15.3583C91.7593 15.2536 92.597 14.2064 92.4923 12.9499V12.531C92.3875 11.2745 91.3404 10.4368 90.0839 10.5415ZM90.398 11.3792C91.2357 11.3792 91.6546 11.9028 91.6546 12.9499C91.6546 13.997 91.131 14.6253 90.398 14.6253C89.5603 14.6253 89.1415 13.997 89.1415 12.9499C89.1415 12.0075 89.5603 11.3792 90.398 11.3792Z" fill="white"></path> <path d="M93.8535 10.646H94.7959V11.379H94.9006C95.1101 10.8554 95.7383 10.5413 96.2619 10.5413C97.0996 10.4366 97.8326 11.0649 97.9373 12.0073V15.3581H96.9949V12.5308C96.9949 11.7979 96.6807 11.379 95.9478 11.379C95.3195 11.379 94.7959 11.7979 94.7959 12.4261V15.3581H93.8535V10.646Z" fill="white"></path> <path d="M103.068 10.6455V9.49365H102.021V10.7502H101.288V11.4832H102.021V14.101C102.021 15.0434 102.44 15.3576 103.487 15.3576H104.01V14.6246H103.696C103.277 14.6246 103.068 14.4152 103.068 13.8916V11.4832H104.115V10.6455H103.068Z" fill="white"></path> <path d="M105.372 8.76111H106.314V11.3789H106.419C106.628 10.8553 107.257 10.4365 107.885 10.5412C108.723 10.5412 109.456 11.1695 109.56 12.0072V15.358H108.618V12.5307C108.618 11.7978 108.304 11.3789 107.571 11.3789C106.942 11.3789 106.419 11.7978 106.419 12.426V15.358H105.476L105.372 8.76111Z" fill="white"></path> <path fill-rule="evenodd" clip-rule="evenodd" d="M112.806 15.4628C113.749 15.5675 114.691 14.9392 114.901 14.1015L113.958 14.2062C113.749 14.5204 113.225 14.8345 112.806 14.7298H112.702C111.969 14.6251 111.445 14.1015 111.55 13.3685H114.901V13.0544C114.901 11.5884 114.168 10.646 112.806 10.646H112.492C111.236 10.7507 110.398 11.9026 110.607 13.0544V13.3685C110.607 14.5204 111.654 15.4628 112.806 15.4628ZM113.958 12.5308H111.55C111.55 11.9026 112.178 11.379 112.806 11.2743H112.911C113.539 11.379 113.958 11.9026 113.958 12.5308Z" fill="white"></path> </g> <defs> <clipPath id="clip0_15136_5981"> <rect width="135" height="40" fill="white" transform="translate(0 0.907715)"></rect> </clipPath> </defs> </svg>